<?xml version="1.0" encoding="UTF-8"?>
<svg version="1.1" xmlns="http://www.w3.org/2000/svg" width="1200" height="1200">
<path d="M0 0 C1.39599346 -0.00461911 2.79198205 -0.01097877 4.18796062 -0.01890898 C7.99154785 -0.03548704 11.79472963 -0.02740909 15.59831762 -0.0149641 C19.71292097 -0.00586827 23.82745733 -0.01990569 27.94204712 -0.03088379 C35.98969654 -0.04862546 44.03719633 -0.0448485 52.0848515 -0.03323323 C58.62814383 -0.02418199 65.17139436 -0.0229822 71.71469116 -0.02732849 C72.64767271 -0.02794142 73.58065425 -0.02855436 74.54190797 -0.02918586 C76.43752679 -0.03046482 78.33314561 -0.03176168 80.22876441 -0.03307623 C97.98393969 -0.04446928 115.73903221 -0.03138835 133.49419391 -0.00987476 C148.71304895 0.00799506 163.93178193 0.00489059 179.15063477 -0.0135498 C196.84436075 -0.03497907 214.53801429 -0.04337076 232.23175144 -0.03110075 C234.12020936 -0.02982662 236.0086673 -0.02856913 237.89712524 -0.02732849 C239.29068655 -0.02640284 239.29068655 -0.02640284 240.71240062 -0.02545848 C247.24418775 -0.02201175 253.77592875 -0.02781931 260.30770874 -0.0372467 C268.27301083 -0.04849093 276.23815533 -0.04537583 284.20343947 -0.02412373 C288.26373191 -0.01364583 292.32376207 -0.00943544 296.38405228 -0.02272034 C300.10743507 -0.03471822 303.83031469 -0.02796149 307.55365241 -0.00681013 C309.5245573 -0.00028873 311.49549766 -0.01321373 313.46636486 -0.02703905 C327.14916373 0.09250826 338.72864831 4.36922952 349.0246582 13.46887207 C359.0828021 23.87518248 364.15183389 37.42334995 364.0577572 51.75491363 C364.0621505 52.93031969 364.0621505 52.93031969 364.06663255 54.12947133 C364.07398902 56.74625852 364.06717024 59.3628103 364.0603838 61.97959614 C364.06277453 63.88630216 364.06604028 65.79300726 364.0701004 67.69971046 C364.07873227 72.95189395 364.074889 78.20400611 364.06904467 83.45619072 C364.06488001 89.16544997 364.07227312 94.87469606 364.07819718 100.58395213 C364.08697031 110.59447187 364.08826734 120.60497115 364.08469391 130.61549377 C364.08086991 141.35619857 364.08127284 152.09688742 364.08700371 162.83759117 C364.08736253 163.51611773 364.08772136 164.19464429 364.08809106 164.89373226 C364.08956598 167.65729487 364.09107037 170.42085745 364.09261252 173.18442002 C364.10824871 201.23795872 364.11092635 229.29148833 364.10845646 257.34503061 C364.10811802 261.22145713 364.10779592 265.09788364 364.10749078 268.97431016 C364.10742973 269.74425974 364.10736869 270.51420932 364.1073058 271.30749071 C364.10603399 288.36938229 364.10863512 305.43127262 364.11201684 322.49316382 C364.11278759 326.38880109 364.11353231 330.28443837 364.11428186 334.18007564 C364.11458355 335.7435485 364.11488543 337.30702135 364.1151875 338.87049421 C364.11533718 339.64547872 364.11548686 340.42046324 364.11564108 341.21893214 C364.11594461 342.78650687 364.11624929 344.3540816 364.11655512 345.92165633 C364.1252288 390.40379168 364.12987158 434.88592593 364.12560749 479.36806202 C364.12552943 480.19181062 364.12545138 481.01555922 364.12537095 481.8642699 C364.12449815 491.04999964 364.12356889 500.23572938 364.12262032 509.42145912 C364.12253481 510.2507996 364.1224493 511.08014009 364.1223612 511.9346121 C364.1216504 518.82585351 364.1216504 518.82585351 364.12131898 521.9963739 C364.11578297 575.0458886 364.12332571 628.0953859 364.14208984 681.14489746 C364.14681203 694.51192375 364.15149253 707.87895006 364.1559267 721.24597645 C364.15620003 722.06902863 364.15647335 722.89208081 364.15675495 723.74007396 C364.16512566 749.10522546 364.16980586 774.47037551 364.17063427 799.83552837 C364.17066064 800.63183197 364.170687 801.42813556 364.17071417 802.24856956 C364.17125494 819.7289014 364.17088252 837.20923311 364.16967445 854.68956491 C364.16924883 860.94423857 364.1688837 867.19891223 364.16854501 873.45358589 C364.16845971 875.00959664 364.16837078 876.56560739 364.16827819 878.12161814 C364.16682924 902.91845348 364.17395682 927.715277 364.18528215 952.51210951 C364.19692926 978.17964142 364.19749909 1003.84715223 364.18543873 1029.51468424 C364.18418689 1032.27114773 364.18298341 1035.02761125 364.18181801 1037.78407478 C364.18152771 1038.4605586 364.18123742 1039.13704241 364.18093833 1039.83402573 C364.17635045 1051.19553568 364.18362318 1062.55700622 364.19402724 1073.91851251 C364.20224777 1083.79963991 364.19960548 1093.68072549 364.18805198 1103.56184946 C364.18177175 1109.19552809 364.18025597 1114.82909794 364.19191531 1120.46277044 C364.20242631 1125.58862957 364.19911315 1130.7142874 364.18481078 1135.84013566 C364.18208396 1137.68217723 364.18437183 1139.52423488 364.19231793 1141.36626133 C364.26350615 1159.07877772 361.69235938 1174.04192184 349.05981445 1187.44152832 C337.58261681 1197.96395042 324.68724795 1201.12179905 309.46290588 1201.01129913 C308.04386187 1201.01548017 306.62482215 1201.02141145 305.20579183 1201.0289166 C301.32150721 1201.04442311 297.43762287 1201.03521038 293.55334513 1201.02180479 C289.32180093 1201.01162731 285.09031651 1201.02470974 280.85878086 1201.03477812 C273.44743389 1201.04920788 266.03620353 1201.04879711 258.62485123 1201.03858948 C247.60387894 1201.02345162 236.58300491 1201.03119861 225.56203327 1201.04342271 C205.87795166 1201.06448303 186.19392199 1201.06266115 166.50983545 1201.05110706 C149.2839867 1201.04104551 132.05815699 1201.03841772 114.83230591 1201.04319763 C113.68974984 1201.04350317 112.54719377 1201.04380871 111.37001479 1201.04412351 C106.73202697 1201.04536886 102.09403916 1201.04664246 97.45605135 1201.04796257 C53.94667021 1201.06019904 10.43732214 1201.04910397 -33.07205389 1201.02757498 C-71.72896185 1201.00859251 -110.38581711 1201.01029102 -149.04272461 1201.02941895 C-192.47244227 1201.05083668 -235.9021307 1201.05933124 -279.33185291 1201.04696989 C-283.96139844 1201.04568702 -288.59094397 1201.04443566 -293.2204895 1201.04319763 C-294.36040472 1201.04288132 -295.50031993 1201.04256501 -296.67477804 1201.04223912 C-313.88995404 1201.0376889 -331.10510891 1201.04301094 -348.32028198 1201.05311584 C-367.8943709 1201.06454808 -387.46839976 1201.06170379 -407.04248118 1201.03999287 C-417.99790733 1201.02824237 -428.95320342 1201.0274887 -439.90862621 1201.04257757 C-447.22610695 1201.05154459 -454.54348339 1201.04596942 -461.86094867 1201.02855849 C-466.0303725 1201.01904185 -470.19953787 1201.01579275 -474.36895359 1201.03018242 C-478.16619756 1201.04315394 -481.96295507 1201.03754295 -485.76016395 1201.01745978 C-487.76041183 1201.0115663 -489.76068863 1201.02515921 -491.76089251 1201.0396769 C-505.48852816 1200.92586775 -517.07956801 1196.67957355 -527.4128418 1187.54699707 C-537.79447617 1176.80599843 -542.52965899 1163.11741138 -542.44856739 1148.40669537 C-542.45177387 1147.53208185 -542.45498035 1146.65746834 -542.45828399 1145.75635138 C-542.46656386 1142.8351552 -542.46066673 1139.91416512 -542.45478821 1136.9929657 C-542.45780981 1134.87360176 -542.46169933 1132.7542389 -542.46638077 1130.63487798 C-542.47666842 1124.81795176 -542.47447697 1119.00108711 -542.47020018 1113.18415582 C-542.46773436 1106.90794546 -542.47674535 1100.63174997 -542.48423767 1094.35554504 C-542.49699076 1082.06232865 -542.4987834 1069.76913797 -542.49643741 1057.47591659 C-542.49460383 1047.4838587 -542.49636572 1037.49180722 -542.50066185 1027.49975014 C-542.50126425 1026.06353641 -542.50186545 1024.62732268 -542.50246545 1023.19110895 C-542.50337272 1021.02679242 -542.50428139 1018.86247589 -542.5051978 1016.69815937 C-542.513626 996.5783273 -542.51796396 976.45849764 -542.51379108 956.33866405 C-542.51363471 955.58037065 -542.51347833 954.82207724 -542.51331722 954.04080524 C-542.51251145 950.1975919 -542.51166568 946.35437856 -542.51080392 942.51116522 C-542.51063283 941.74790966 -542.51046174 940.9846541 -542.51028547 940.19826958 C-542.50993881 938.65478179 -542.50959028 937.111294 -542.50923988 935.56780621 C-542.50388309 911.55296142 -542.51181245 887.53815336 -542.53027344 863.52331543 C-542.55099715 836.53350632 -542.56171543 809.54371996 -542.55769795 782.55390245 C-542.55730261 779.67512373 -542.55694107 776.79634502 -542.55660057 773.9175663 C-542.55650984 773.20875453 -542.55641911 772.49994276 -542.55632563 771.76965185 C-542.55516046 761.07719573 -542.56180178 750.38476261 -542.57241249 739.69231224 C-542.58447041 727.5292071 -542.58573872 715.36616843 -542.57362232 703.20305964 C-542.5677289 696.99808386 -542.56664714 690.79320698 -542.57862473 684.58823776 C-542.58946716 678.90525678 -542.58639948 673.22245745 -542.57236304 667.53948501 C-542.56971162 665.48639135 -542.5720966 663.43328353 -542.5800989 661.38020375 C-542.64674672 643.00161127 -540.61373793 627.53951842 -527.44799805 613.57434082 C-514.06015438 601.30021725 -499.55907472 599.91591049 -482.28881836 600.05383301 C-480.2969261 600.05496306 -478.30503217 600.05432455 -476.31314087 600.05206299 C-470.93784165 600.05092108 -465.56290359 600.07434547 -460.18768787 600.10235882 C-454.55831066 600.12745997 -448.92892406 600.12972133 -443.29949951 600.13446045 C-432.65378002 600.14686468 -422.00822595 600.17965168 -411.36257911 600.21985841 C-399.23679917 600.26465569 -387.1110111 600.28658315 -374.98516893 600.30664015 C-350.05471838 600.34838661 -325.12441438 600.41868888 -300.1940918 600.50793457 C-300.19685718 599.18933315 -300.19962255 597.87073174 -300.20247173 596.5121727 C-300.26750623 565.18069069 -300.31694382 533.84922657 -300.34728779 502.51769279 C-300.35103971 498.6576691 -300.3549227 494.79764555 -300.35888672 490.93762207 C-300.35967365 490.16919118 -300.36046058 489.4007603 -300.36127136 488.60904363 C-300.37430982 476.18199784 -300.39795504 463.75499387 -300.42555019 451.32797286 C-300.45364785 438.5678175 -300.47027726 425.80768397 -300.47635728 413.04749894 C-300.48046469 405.17971723 -300.49341718 397.31205374 -300.5178412 389.44430843 C-300.53563868 383.40178148 -300.53744644 377.35935531 -300.53341484 371.31679916 C-300.53423801 368.84494425 -300.54017648 366.37308472 -300.55170822 363.90125656 C-300.56672292 360.51589798 -300.56301248 357.13103759 -300.55485535 353.7456665 C-300.56359387 352.77675594 -300.5723324 351.80784538 -300.58133572 350.80957389 C-300.48633781 336.13625071 -295.53902047 323.27810085 -285.44799805 312.57434082 C-276.88685381 304.72538882 -266.73581599 300.56916817 -255.3815918 298.63293457 C-250.94659377 297.84275033 -246.95832028 296.2983206 -242.8190918 294.57043457 C-226.19653983 287.68684972 -209.17129652 286.18509607 -191.33276367 286.28088379 C-189.82303373 286.28144993 -188.31330324 286.2811274 -186.80357361 286.27999878 C-182.76121155 286.27943217 -178.71897167 286.29107245 -174.67663765 286.30514669 C-170.43128223 286.31777128 -166.18592306 286.31883369 -161.94055176 286.32119751 C-153.92642461 286.3273782 -145.91235297 286.34374212 -137.8982501 286.36389649 C-128.76384062 286.38636259 -119.62942828 286.39727568 -110.49499798 286.40728736 C-91.72799796 286.42811194 -72.96104936 286.46322052 -54.1940918 286.50793457 C-54.19777897 285.25725347 -54.20146614 284.00657236 -54.20526505 282.71799183 C-54.29200384 252.99105805 -54.35790749 223.26415705 -54.39835311 193.53712763 C-54.4033556 189.87366918 -54.40853292 186.21021099 -54.41381836 182.54675293 C-54.4148676 181.81746235 -54.41591684 181.08817176 -54.41699788 180.33678146 C-54.43437591 168.54734465 -54.46589916 156.75798631 -54.50270298 144.96859596 C-54.54018501 132.86045521 -54.56234295 120.7523554 -54.57044578 108.64415902 C-54.57542899 101.84784077 -54.58735663 95.05168577 -54.61701202 88.25542641 C-54.64425532 81.85244776 -54.65251866 75.44971918 -54.64652252 69.04668808 C-54.64761876 66.70263877 -54.65551907 64.35858069 -54.6709137 62.01458168 C-54.78802192 43.25613873 -53.27217897 28.12821367 -39.8815918 13.69543457 C-28.52938591 3.15049666 -15.11691851 -0.10604281 0 0 Z " fill="#EDC349" transform="translate(689.194091796875,-0.5079345703125)"/>
<path d="M0 0 C1.39599346 -0.00461911 2.79198205 -0.01097877 4.18796062 -0.01890898 C7.99154785 -0.03548704 11.79472963 -0.02740909 15.59831762 -0.0149641 C19.71292097 -0.00586827 23.82745733 -0.01990569 27.94204712 -0.03088379 C35.98969654 -0.04862546 44.03719633 -0.0448485 52.0848515 -0.03323323 C58.62814383 -0.02418199 65.17139436 -0.0229822 71.71469116 -0.02732849 C72.64767271 -0.02794142 73.58065425 -0.02855436 74.54190797 -0.02918586 C76.43752679 -0.03046482 78.33314561 -0.03176168 80.22876441 -0.03307623 C97.98393969 -0.04446928 115.73903221 -0.03138835 133.49419391 -0.00987476 C148.71304895 0.00799506 163.93178193 0.00489059 179.15063477 -0.0135498 C196.84436075 -0.03497907 214.53801429 -0.04337076 232.23175144 -0.03110075 C234.12020936 -0.02982662 236.0086673 -0.02856913 237.89712524 -0.02732849 C239.29068655 -0.02640284 239.29068655 -0.02640284 240.71240062 -0.02545848 C247.24418775 -0.02201175 253.77592875 -0.02781931 260.30770874 -0.0372467 C268.27301083 -0.04849093 276.23815533 -0.04537583 284.20343947 -0.02412373 C288.26373191 -0.01364583 292.32376207 -0.00943544 296.38405228 -0.02272034 C300.10743507 -0.03471822 303.83031469 -0.02796149 307.55365241 -0.00681013 C309.5245573 -0.00028873 311.49549766 -0.01321373 313.46636486 -0.02703905 C327.14916373 0.09250826 338.72864831 4.36922952 349.0246582 13.46887207 C359.0828021 23.87518248 364.15183389 37.42334995 364.0577572 51.75491363 C364.0621505 52.93031969 364.0621505 52.93031969 364.06663255 54.12947133 C364.07398902 56.74625852 364.06717024 59.3628103 364.0603838 61.97959614 C364.06277453 63.88630216 364.06604028 65.79300726 364.0701004 67.69971046 C364.07873227 72.95189395 364.074889 78.20400611 364.06904467 83.45619072 C364.06488001 89.16544997 364.07227312 94.87469606 364.07819718 100.58395213 C364.08697031 110.59447187 364.08826734 120.60497115 364.08469391 130.61549377 C364.08086991 141.35619857 364.08127284 152.09688742 364.08700371 162.83759117 C364.08736253 163.51611773 364.08772136 164.19464429 364.08809106 164.89373226 C364.08956598 167.65729487 364.09107037 170.42085745 364.09261252 173.18442002 C364.10824871 201.23795872 364.11092635 229.29148833 364.10845646 257.34503061 C364.10811802 261.22145713 364.10779592 265.09788364 364.10749078 268.97431016 C364.10742973 269.74425974 364.10736869 270.51420932 364.1073058 271.30749071 C364.10603399 288.36938229 364.10863512 305.43127262 364.11201684 322.49316382 C364.11278759 326.38880109 364.11353231 330.28443837 364.11428186 334.18007564 C364.11458355 335.7435485 364.11488543 337.30702135 364.1151875 338.87049421 C364.11533718 339.64547872 364.11548686 340.42046324 364.11564108 341.21893214 C364.11594461 342.78650687 364.11624929 344.3540816 364.11655512 345.92165633 C364.1252288 390.40379168 364.12987158 434.88592593 364.12560749 479.36806202 C364.12552943 480.19181062 364.12545138 481.01555922 364.12537095 481.8642699 C364.12449815 491.04999964 364.12356889 500.23572938 364.12262032 509.42145912 C364.12253481 510.2507996 364.1224493 511.08014009 364.1223612 511.9346121 C364.1216504 518.82585351 364.1216504 518.82585351 364.12131898 521.9963739 C364.11578297 575.0458886 364.12332571 628.0953859 364.14208984 681.14489746 C364.14681203 694.51192375 364.15149253 707.87895006 364.1559267 721.24597645 C364.15620003 722.06902863 364.15647335 722.89208081 364.15675495 723.74007396 C364.16512566 749.10522546 364.16980586 774.47037551 364.17063427 799.83552837 C364.17066064 800.63183197 364.170687 801.42813556 364.17071417 802.24856956 C364.17125494 819.7289014 364.17088252 837.20923311 364.16967445 854.68956491 C364.16924883 860.94423857 364.1688837 867.19891223 364.16854501 873.45358589 C364.16845971 875.00959664 364.16837078 876.56560739 364.16827819 878.12161814 C364.16682924 902.91845348 364.17395682 927.715277 364.18528215 952.51210951 C364.19692926 978.17964142 364.19749909 1003.84715223 364.18543873 1029.51468424 C364.18418689 1032.27114773 364.18298341 1035.02761125 364.18181801 1037.78407478 C364.18152771 1038.4605586 364.18123742 1039.13704241 364.18093833 1039.83402573 C364.17635045 1051.19553568 364.18362318 1062.55700622 364.19402724 1073.91851251 C364.20224777 1083.79963991 364.19960548 1093.68072549 364.18805198 1103.56184946 C364.18177175 1109.19552809 364.18025597 1114.82909794 364.19191531 1120.46277044 C364.20242631 1125.58862957 364.19911315 1130.7142874 364.18481078 1135.84013566 C364.18208396 1137.68217723 364.18437183 1139.52423488 364.19231793 1141.36626133 C364.26350615 1159.07877772 361.69235938 1174.04192184 349.05981445 1187.44152832 C335.52996766 1199.84584193 320.88113766 1201.09786744 303.44165039 1200.96203613 C301.40049766 1200.96090615 299.35934331 1200.96154445 297.31819153 1200.96380615 C291.80860275 1200.96494834 286.29936615 1200.94151941 280.78985882 1200.91351032 C275.02034504 1200.88841382 269.25082215 1200.88614818 263.48126221 1200.88140869 C252.56992491 1200.86900311 241.65874896 1200.83621425 230.74748254 1200.79601073 C218.31941031 1200.75121769 205.89133016 1200.72928705 193.46319723 1200.70922899 C167.9106783 1200.66747946 142.35830231 1200.59717453 116.8059082 1200.50793457 C116.80661012 1199.39476797 116.80661012 1199.39476797 116.80732621 1198.25911315 C116.858159 1117.474362 116.90527613 1036.68960899 116.93293762 955.90484619 C116.93355888 954.09511361 116.93355888 954.09511361 116.93419269 952.24882077 C116.94317114 926.02938501 116.95148173 899.80994908 116.95910419 873.59051289 C116.96284624 860.73274586 116.9667359 847.87497888 116.97070312 835.01721191 C116.9710954 833.73770083 116.97148768 832.45818976 116.97189184 831.13990561 C116.9846788 789.65772573 117.00721491 748.1755581 117.03479987 706.69338563 C117.06309253 664.06961671 117.08156335 621.44585457 117.08765317 578.82207642 C117.08851765 572.80353138 117.08949456 566.78498636 117.09053993 560.76644135 C117.0907422 559.58189046 117.09094447 558.39733957 117.09115287 557.17689321 C117.09469978 538.09907745 117.10861872 519.02128264 117.1264043 499.94347543 C117.14405836 480.76979264 117.15081406 461.59613065 117.14641234 442.42244002 C117.14412841 431.02717646 117.15023343 419.63198894 117.16830083 408.23673909 C117.17954521 400.62566447 117.17990287 393.01463968 117.17140364 385.40356163 C117.16687201 381.06626058 117.16707832 376.72910338 117.18055775 372.39181772 C117.19273919 368.44215198 117.19097799 364.49274175 117.17832813 360.54307973 C117.17619413 359.12679929 117.17903711 357.71049981 117.18761394 356.29424373 C117.28180917 339.68017387 113.80091323 326.00721259 102.19262695 313.76574707 C93.78564968 305.81282912 82.85544546 300.40038007 71.17560196 300.36926937 C70.02160062 300.36379493 68.86759928 300.35832048 67.67862821 300.35268015 C66.41015758 300.35170204 65.14168696 300.35072393 63.83477783 300.34971619 C62.47426481 300.34515019 61.11375319 300.34015012 59.75324321 300.33475262 C56.01116588 300.32116634 52.26909764 300.31375173 48.5270021 300.30732596 C44.4929407 300.29932418 40.45889824 300.28562563 36.42485046 300.27261353 C29.43441612 300.25084764 22.44397987 300.23270355 15.45352936 300.21700859 C5.34646987 300.194311 -4.76056865 300.16616801 -14.86761037 300.13668931 C-31.26500248 300.08901206 -47.66240316 300.04574823 -64.05981445 300.00524902 C-79.98983426 299.96589478 -95.91984644 299.92446872 -111.84985352 299.88024902 C-112.83152417 299.87752475 -113.81319482 299.87480048 -114.82461306 299.87199365 C-119.74929006 299.85831419 -124.67396695 299.84459391 -129.59864378 299.83085334 C-170.46377726 299.71688646 -211.32892716 299.61007757 -252.1940918 299.50793457 C-248.67617037 296.74727689 -245.11315425 295.06409591 -240.9440918 293.50793457 C-239.89596313 293.11601929 -239.89596313 293.11601929 -238.82666016 292.71618652 C-223.75086003 287.31330836 -208.01041117 286.35255238 -192.12744141 286.39440918 C-190.61874392 286.39469169 -189.11004629 286.39453208 -187.60134888 286.39396667 C-183.52968543 286.39368118 -179.45805177 286.3995378 -175.38639522 286.40654063 C-171.12230886 286.41281547 -166.85822173 286.41338123 -162.59413147 286.41456604 C-154.5302089 286.41766721 -146.46629997 286.42586418 -138.40238339 286.43591553 C-129.21734527 286.44711444 -120.03230647 286.45259662 -110.84726322 286.45761096 C-91.96286502 286.46804786 -73.07847951 286.4856237 -54.1940918 286.50793457 C-54.19777897 285.25725347 -54.20146614 284.00657236 -54.20526505 282.71799183 C-54.29200384 252.99105805 -54.35790749 223.26415705 -54.39835311 193.53712763 C-54.4033556 189.87366918 -54.40853292 186.21021099 -54.41381836 182.54675293 C-54.4148676 181.81746235 -54.41591684 181.08817176 -54.41699788 180.33678146 C-54.43437591 168.54734465 -54.46589916 156.75798631 -54.50270298 144.96859596 C-54.54018501 132.86045521 -54.56234295 120.7523554 -54.57044578 108.64415902 C-54.57542899 101.84784077 -54.58735663 95.05168577 -54.61701202 88.25542641 C-54.64425532 81.85244776 -54.65251866 75.44971918 -54.64652252 69.04668808 C-54.64761876 66.70263877 -54.65551907 64.35858069 -54.6709137 62.01458168 C-54.78802192 43.25613873 -53.27217897 28.12821367 -39.8815918 13.69543457 C-28.52938591 3.15049666 -15.11691851 -0.10604281 0 0 Z " fill="#D08C0B" transform="translate(689.194091796875,-0.5079345703125)"/>
<path d="M0 0 C1.39599346 -0.00461911 2.79198205 -0.01097877 4.18796062 -0.01890898 C7.99154785 -0.03548704 11.79472963 -0.02740909 15.59831762 -0.0149641 C19.71292097 -0.00586827 23.82745733 -0.01990569 27.94204712 -0.03088379 C35.98969654 -0.04862546 44.03719633 -0.0448485 52.0848515 -0.03323323 C58.62814383 -0.02418199 65.17139436 -0.0229822 71.71469116 -0.02732849 C72.64767271 -0.02794142 73.58065425 -0.02855436 74.54190797 -0.02918586 C76.43752679 -0.03046482 78.33314561 -0.03176168 80.22876441 -0.03307623 C97.98393969 -0.04446928 115.73903221 -0.03138835 133.49419391 -0.00987476 C148.71304895 0.00799506 163.93178193 0.00489059 179.15063477 -0.0135498 C196.84436075 -0.03497907 214.53801429 -0.04337076 232.23175144 -0.03110075 C234.12020936 -0.02982662 236.0086673 -0.02856913 237.89712524 -0.02732849 C239.29068655 -0.02640284 239.29068655 -0.02640284 240.71240062 -0.02545848 C247.24418775 -0.02201175 253.77592875 -0.02781931 260.30770874 -0.0372467 C268.27301083 -0.04849093 276.23815533 -0.04537583 284.20343947 -0.02412373 C288.26373191 -0.01364583 292.32376207 -0.00943544 296.38405228 -0.02272034 C300.10743507 -0.03471822 303.83031469 -0.02796149 307.55365241 -0.00681013 C309.5245573 -0.00028873 311.49549766 -0.01321373 313.46636486 -0.02703905 C327.05993524 0.09172866 339.05821612 4.27587387 349.0949707 13.64465332 C364.08201328 29.72625519 364.38837109 47.43331434 364.27587891 68.28991699 C364.27636761 70.9255073 364.27844319 73.56105329 364.28244781 76.1966362 C364.2879152 81.90132693 364.27859112 87.60584074 364.25925636 93.31049919 C364.23067951 101.74643781 364.22474946 110.18228561 364.22334047 118.61826707 C364.22009213 133.56874773 364.1941309 148.51912233 364.15865722 163.46955735 C364.12793797 176.47115688 364.10623987 189.47273614 364.09301758 202.47436523 C364.09168904 203.76457225 364.09168904 203.76457225 364.09033366 205.08084406 C364.08675387 208.56549046 364.08320324 212.05013689 364.07969848 215.53478337 C363.99657056 297.54078312 363.75358716 379.54670109 362.8059082 600.50793457 C314.98261793 600.59951451 267.15933695 600.66998571 219.33597626 600.71219589 C213.68842088 600.71719864 208.04086567 600.72237594 202.39331055 600.72766113 C201.2689965 600.72871037 200.14468246 600.72975962 198.98629829 600.73084065 C180.78787297 600.74824006 162.58949825 600.77977522 144.39110294 600.81654575 C125.7142032 600.85396805 107.03732994 600.87617316 88.36039424 600.88428855 C76.83817533 600.88977363 65.31609947 600.90709025 53.7939246 600.93960044 C45.88990503 600.9607642 37.98595928 600.96713038 30.08191344 600.96194008 C25.52347893 600.95938122 20.96529418 600.96326999 16.40690422 600.98475647 C12.22788914 601.00431026 8.04929034 601.00514775 3.87025556 600.99153015 C2.36398707 600.98984866 0.85769195 600.99484793 -0.64852461 601.0074673 C-15.61993282 601.12553627 -28.0234586 597.61296602 -39.4128418 587.54699707 C-49.79447617 576.80599843 -54.52965899 563.11741138 -54.44856739 548.40669537 C-54.45177387 547.53208185 -54.45498035 546.65746834 -54.45828399 545.75635138 C-54.46656386 542.8351552 -54.46066673 539.91416512 -54.45478821 536.9929657 C-54.45780981 534.87360176 -54.46169933 532.7542389 -54.46638077 530.63487798 C-54.47666842 524.81795176 -54.47447697 519.00108711 -54.47020018 513.18415582 C-54.46773436 506.90794546 -54.47674535 500.63174997 -54.48423767 494.35554504 C-54.49699076 482.06232865 -54.4987834 469.76913797 -54.49643741 457.47591659 C-54.49460383 447.4838587 -54.49636572 437.49180722 -54.50066185 427.49975014 C-54.50126425 426.06353641 -54.50186545 424.62732268 -54.50246545 423.19110895 C-54.50337272 421.02679242 -54.50428139 418.86247589 -54.5051978 416.69815937 C-54.513626 396.5783273 -54.51796396 376.45849764 -54.51379108 356.33866405 C-54.51363471 355.58037065 -54.51347833 354.82207724 -54.51331722 354.04080524 C-54.51251145 350.1975919 -54.51166568 346.35437856 -54.51080392 342.51116522 C-54.51063283 341.74790966 -54.51046174 340.9846541 -54.51028547 340.19826958 C-54.50993881 338.65478179 -54.50959028 337.111294 -54.50923988 335.56780621 C-54.50388309 311.55296142 -54.51181245 287.53815336 -54.53027344 263.52331543 C-54.55099715 236.53350632 -54.56171543 209.54371996 -54.55769795 182.55390245 C-54.55730261 179.67512373 -54.55694107 176.79634502 -54.55660057 173.9175663 C-54.55650984 173.20875453 -54.55641911 172.49994276 -54.55632563 171.76965185 C-54.55516046 161.07719573 -54.56180178 150.38476261 -54.57241249 139.69231224 C-54.58447041 127.5292071 -54.58573872 115.36616843 -54.57362232 103.20305964 C-54.5677289 96.99808386 -54.56664714 90.79320698 -54.57862473 84.58823776 C-54.58946716 78.90525678 -54.58639948 73.22245745 -54.57236304 67.53948501 C-54.56971162 65.48639135 -54.5720966 63.43328353 -54.5800989 61.38020375 C-54.64674672 43.00161127 -52.61373793 27.53951842 -39.44799805 13.57434082 C-28.02502554 3.10163292 -15.1597397 -0.10634319 0 0 Z " fill="#F5D95E" transform="translate(201.194091796875,599.4920654296875)"/>
<path d="M0 0 C1.50869749 0.00028251 3.01739512 0.0001229 4.52609253 -0.0004425 C8.59775598 -0.000728 12.66938963 0.00512862 16.74104619 0.01213145 C21.00513255 0.01840629 25.26921968 0.01897205 29.53330994 0.02015686 C37.59723251 0.02325804 45.66114144 0.031455 53.72505802 0.04150635 C62.91009614 0.05270526 72.09513493 0.05818744 81.28017819 0.06320179 C100.1645766 0.07363868 119.0489615 0.09141728 137.93334961 0.11352539 C137.93334961 4.40352539 137.93334961 8.69352539 137.93334961 13.11352539 C72.59334961 13.11352539 7.25334961 13.11352539 -60.06665039 13.11352539 C-56.37920998 10.34794508 -53.06386337 8.69885752 -48.81665039 7.11352539 C-48.11789795 6.85224854 -47.41914551 6.59097168 -46.69921875 6.32177734 C-31.62341862 0.91889918 -15.88296976 -0.0418568 0 0 Z " fill="#000000" transform="translate(497.066650390625,285.886474609375)"/>
</svg>
